<?xml version="1.0" standalone="no"?>
<!DOCTYPE svg PUBLIC "-//W3C//DTD SVG 1.1//EN" "http://www.w3.org/Graphics/SVG/1.1/DTD/svg11.dtd">
<svg width="100%" height="100%" viewBox="0 0 16 16" version="1.1" xmlns="http://www.w3.org/2000/svg" xmlns:xlink="http://www.w3.org/1999/xlink" xml:space="preserve" style="fill-rule:evenodd;clip-rule:evenodd;stroke-linejoin:round;stroke-miterlimit:1.41421;">
    <g transform="matrix(1,0,0,1,-1018.71,-1991.89)">
        <path d="M1033.79,1991.9L1019.64,1991.9C1019.13,1991.9 1018.72,1992.31 1018.72,1992.82L1018.72,2006.97C1018.72,2007.47 1019.13,2007.88 1019.64,2007.88L1033.79,2007.88C1034.29,2007.88 1034.7,2007.47 1034.7,2006.97L1034.7,1992.82C1034.7,1992.31 1034.29,1991.9 1033.79,1991.9ZM1032.29,2000.86L1030.09,2000.86L1030.09,2006.74L1027.86,2006.74L1027.86,2000.86L1026.3,2000.86L1026.3,1998.75L1027.86,1998.75C1027.86,1998.75 1027.86,1997.88 1027.86,1996.94C1027.86,1995.52 1028.77,1994.22 1030.89,1994.22C1031.74,1994.22 1032.38,1994.3 1032.38,1994.3L1032.33,1996.28C1032.33,1996.28 1031.68,1996.27 1030.98,1996.27C1030.21,1996.27 1030.09,1996.62 1030.09,1997.21L1030.09,1998.75L1032.39,1998.75L1032.29,2000.86Z" style="fill:rgb(128,128,128);fill-rule:nonzero;"/>
    </g>
</svg>
