<?xml version="1.0" standalone="no"?>
<!DOCTYPE svg PUBLIC "-//W3C//DTD SVG 1.1//EN" "http://www.w3.org/Graphics/SVG/1.1/DTD/svg11.dtd">
<svg width="100%" height="100%" viewBox="0 0 16 16" version="1.1" xmlns="http://www.w3.org/2000/svg" xmlns:xlink="http://www.w3.org/1999/xlink" xml:space="preserve" style="fill-rule:evenodd;clip-rule:evenodd;stroke-linejoin:round;stroke-miterlimit:1.41421;">
    <g transform="matrix(1,0,0,1,-1050.67,-1991.89)">
        <path d="M1065.13,1991.9L1052.22,1991.9C1051.37,1991.9 1050.68,1992.59 1050.68,1993.44L1050.68,2006.34C1050.68,2007.19 1051.37,2007.88 1052.22,2007.88L1065.13,2007.88C1065.98,2007.88 1066.66,2007.19 1066.66,2006.34L1066.66,1993.44C1066.66,1992.59 1065.98,1991.9 1065.13,1991.9ZM1058.67,1996.82C1060.37,1996.82 1061.75,1998.19 1061.75,1999.89C1061.75,2001.59 1060.37,2002.96 1058.67,2002.96C1056.98,2002.96 1055.6,2001.59 1055.6,1999.89C1055.6,1998.19 1056.98,1996.82 1058.67,1996.82ZM1064.82,2005.42C1064.82,2005.76 1064.54,2006.04 1064.2,2006.04L1053.14,2006.04C1052.8,2006.04 1052.53,2005.76 1052.53,2005.42L1052.53,1998.66L1053.92,1998.66C1053.82,1999.05 1053.76,1999.47 1053.76,1999.89C1053.76,2002.61 1055.96,2004.81 1058.67,2004.81C1061.39,2004.81 1063.59,2002.61 1063.59,1999.89C1063.59,1999.47 1063.53,1999.05 1063.43,1998.66L1064.82,1998.66L1064.82,2005.42ZM1064.82,1996.2C1064.82,1996.54 1064.54,1996.82 1064.2,1996.82L1062.36,1996.82C1062.02,1996.82 1061.75,1996.54 1061.75,1996.2L1061.75,1994.36C1061.75,1994.02 1062.02,1993.75 1062.36,1993.75L1064.2,1993.75C1064.54,1993.75 1064.82,1994.02 1064.82,1994.36L1064.82,1996.2Z" style="fill:rgb(128,128,128);"/>
    </g>
</svg>
