<?xml version="1.0" standalone="no"?>
<!DOCTYPE svg PUBLIC "-//W3C//DTD SVG 1.1//EN" "http://www.w3.org/Graphics/SVG/1.1/DTD/svg11.dtd">
<svg width="100%" height="100%" viewBox="0 0 16 13" version="1.1" xmlns="http://www.w3.org/2000/svg" xmlns:xlink="http://www.w3.org/1999/xlink" xml:space="preserve" style="fill-rule:evenodd;clip-rule:evenodd;stroke-linejoin:round;stroke-miterlimit:1.41421;">
    <g transform="matrix(1,0,0,1,-986.754,-1992.89)">
        <path d="M1002.74,1994.44C1002.15,1994.7 1001.52,1994.87 1000.86,1994.95C1001.54,1994.55 1002.06,1993.9 1002.3,1993.14C1001.67,1993.52 1000.97,1993.79 1000.22,1993.94C999.622,1993.3 998.77,1992.9 997.827,1992.9C996.017,1992.9 994.549,1994.37 994.549,1996.18C994.549,1996.43 994.577,1996.69 994.634,1996.93C991.909,1996.79 989.493,1995.48 987.876,1993.5C987.594,1993.99 987.432,1994.55 987.432,1995.15C987.432,1996.29 988.011,1997.29 988.891,1997.88C988.353,1997.86 987.848,1997.71 987.406,1997.47C987.405,1997.48 987.405,1997.49 987.405,1997.51C987.405,1999.1 988.536,2000.42 990.035,2000.72C989.76,2000.8 989.471,2000.84 989.172,2000.84C988.961,2000.84 988.755,2000.82 988.555,2000.78C988.972,2002.08 990.183,2003.03 991.617,2003.05C990.495,2003.93 989.081,2004.46 987.546,2004.46C987.281,2004.46 987.02,2004.44 986.764,2004.41C988.214,2005.34 989.938,2005.88 991.789,2005.88C997.82,2005.88 1001.12,2000.89 1001.12,1996.56C1001.12,1996.42 1001.11,1996.27 1001.11,1996.13C1001.75,1995.67 1002.3,1995.1 1002.74,1994.44Z" style="fill:rgb(128,128,128);fill-rule:nonzero;"/>
    </g>
</svg>
